# xmcd
#
# Track frame offsets:
#	150
#	22302
#	45417
#	65087
#	81537
#	100355
#	115802
#	133370
#	150340
#	166265
#	182140
#	197415
#	218135
#	239150
#
# Disc length: 3505 seconds
#
# Revision: 3
# Processed by: cddbd v1.5.2PL0 Copyright (c) Steve Scherf et al.
# Submitted via: EasyCDDAExtractor 15.3.0.1
#
DISCID=cd0daf0e
DTITLE=Yuri - Canciones De Amor
DYEAR=2006
DGENRE=Latin
TTITLE0=Quien Eres Tu
TTITLE1=Todo Mi Corazon
TTITLE2=Imposible Amarte Como Yo
TTITLE3=Me Tienes Que Querer
TTITLE4=Mi Amor Es Para Ti
TTITLE5=Es Inutil Ya
TTITLE6=Decir Adios
TTITLE7=No Puedo Mas
TTITLE8=Fascinacion
TTITLE9=Como Te Ame
TTITLE10=Cosas Del Amor
TTITLE11=Un Romance
TTITLE12=Detras De Mi Ventana
TTITLE13=Volver A Empezar
EXTD=
EXTT0=
EXTT1=
EXTT2=
EXTT3=
EXTT4=
EXTT5=
EXTT6=
EXTT7=
EXTT8=
EXTT9=
EXTT10=
EXTT11=
EXTT12=
EXTT13=
PLAYORDER=
